<?xml version="1.0" encoding="UTF-8" standalone="no"?>
<!DOCTYPE svg PUBLIC "-//W3C//DTD SVG 1.1//EN"
 "http://www.w3.org/Graphics/SVG/1.1/DTD/svg11.dtd">
<!-- Generated by graphviz version 2.40.1 (20161225.0304)
 -->
<!-- Title: G Pages: 1 -->
<svg width="492pt" height="376pt"
 viewBox="0.00 0.00 492.00 376.00" xmlns="http://www.w3.org/2000/svg" xmlns:xlink="http://www.w3.org/1999/xlink">
<g id="graph0" class="graph" transform="scale(1 1) rotate(0) translate(4 372)">
<title>G</title>
<polygon fill="#ffffff" stroke="transparent" points="-4,4 -4,-372 488,-372 488,4 -4,4"/>
<g id="clust1" class="cluster">
<title>cluster_Global</title>
<path fill="none" stroke="#c0c0c0" d="M20,-8C20,-8 464,-8 464,-8 470,-8 476,-14 476,-20 476,-20 476,-348 476,-348 476,-354 470,-360 464,-360 464,-360 20,-360 20,-360 14,-360 8,-354 8,-348 8,-348 8,-20 8,-20 8,-14 14,-8 20,-8"/>
<text text-anchor="middle" x="242" y="-347.2" font-family="Times,serif" font-size="11.00" fill="#c0c0c0">Global</text>
</g>
<g id="clust2" class="cluster">
<title>cluster_\BTC</title>
<path fill="none" stroke="#c0c0c0" d="M28,-16C28,-16 456,-16 456,-16 462,-16 468,-22 468,-28 468,-28 468,-320 468,-320 468,-326 462,-332 456,-332 456,-332 28,-332 28,-332 22,-332 16,-326 16,-320 16,-320 16,-28 16,-28 16,-22 22,-16 28,-16"/>
<text text-anchor="middle" x="242" y="-319.2" font-family="Times,serif" font-size="11.00" fill="#c0c0c0">BTC</text>
</g>
<g id="clust3" class="cluster">
<title>cluster_\BTC\Test</title>
<path fill="none" stroke="#c0c0c0" d="M190.5,-178C190.5,-178 432.5,-178 432.5,-178 438.5,-178 444.5,-184 444.5,-190 444.5,-190 444.5,-292 444.5,-292 444.5,-298 438.5,-304 432.5,-304 432.5,-304 190.5,-304 190.5,-304 184.5,-304 178.5,-298 178.5,-292 178.5,-292 178.5,-190 178.5,-190 178.5,-184 184.5,-178 190.5,-178"/>
<text text-anchor="middle" x="311.5" y="-291.2" font-family="Times,serif" font-size="11.00" fill="#c0c0c0">Test</text>
</g>
<!-- \\BTC\\Test\\Vectors -->
<g id="node1" class="node">
<title>\\BTC\\Test\\Vectors</title>
<polygon fill="none" stroke="#000000" points="426.5,-276 362.5,-276 362.5,-240 426.5,-240 426.5,-276"/>
<text text-anchor="middle" x="394.5" y="-255.2" font-family="Courier,monospace" font-size="11.00" fill="#000000">Vectors</text>
</g>
<!-- \\BTC\\Singleton -->
<g id="node7" class="node">
<title>\\BTC\\Singleton</title>
<polygon fill="none" stroke="#000000" points="101,-223 24,-223 24,-187 101,-187 101,-223"/>
<text text-anchor="middle" x="62.5" y="-202.2" font-family="Courier,monospace" font-size="11.00" fill="#000000">Singleton</text>
</g>
<!-- \\BTC\\Test\\Vectors&#45;&gt;\\BTC\\Singleton -->
<g id="edge2" class="edge">
<title>\\BTC\\Test\\Vectors&#45;&gt;\\BTC\\Singleton</title>
<path fill="none" stroke="#000000" d="M362.406,-255.4782C319.1575,-251.7965 239.875,-244.0482 173,-232 152.4773,-228.3026 130.0848,-223.0617 110.8566,-218.1797"/>
<polygon fill="none" stroke="#000000" points="111.6737,-214.776 101.1166,-215.6695 109.9267,-221.5545 111.6737,-214.776"/>
</g>
<!-- \\BTC\\Test\\Logger -->
<g id="node2" class="node">
<title>\\BTC\\Test\\Logger</title>
<polygon fill="none" stroke="#000000" points="243.5,-223 186.5,-223 186.5,-187 243.5,-187 243.5,-223"/>
<text text-anchor="middle" x="215" y="-202.2" font-family="Courier,monospace" font-size="11.00" fill="#000000">Logger</text>
</g>
<!-- \\BTC\\Test\\Logger&#45;&gt;\\BTC\\Singleton -->
<g id="edge3" class="edge">
<title>\\BTC\\Test\\Logger&#45;&gt;\\BTC\\Singleton</title>
<path fill="none" stroke="#000000" d="M186.3159,-205C165.2527,-205 136.1268,-205 111.4155,-205"/>
<polygon fill="none" stroke="#000000" points="111.1316,-201.5001 101.1316,-205 111.1315,-208.5001 111.1316,-201.5001"/>
</g>
<!-- \\BTC\\Test\\TestLogger -->
<g id="node3" class="node">
<title>\\BTC\\Test\\TestLogger</title>
<polygon fill="none" stroke="#000000" points="436.5,-222 352.5,-222 352.5,-186 436.5,-186 436.5,-222"/>
<text text-anchor="middle" x="394.5" y="-201.2" font-family="Courier,monospace" font-size="11.00" fill="#000000">TestLogger</text>
</g>
<!-- \\BTC\\Test\\TestLogger&#45;&gt;\\BTC\\Test\\Logger -->
<g id="edge4" class="edge">
<title>\\BTC\\Test\\TestLogger&#45;&gt;\\BTC\\Test\\Logger</title>
<path fill="none" stroke="#000000" d="M352.4152,-204.2345C322.6059,-204.4005 282.9138,-204.6216 253.8548,-204.7835"/>
<polygon fill="none" stroke="#000000" points="253.6483,-201.2845 243.668,-204.8403 253.6873,-208.2844 253.6483,-201.2845"/>
</g>
<!-- \\BTC\\ExtendedPublicKey -->
<g id="node4" class="node">
<title>\\BTC\\ExtendedPublicKey</title>
<polygon fill="none" stroke="#000000" points="460,-168 329,-168 329,-132 460,-132 460,-168"/>
<text text-anchor="middle" x="394.5" y="-147.2" font-family="Courier,monospace" font-size="11.00" fill="#000000">ExtendedPublicKey</text>
</g>
<!-- \\BTC\\HashUtil -->
<g id="node5" class="node">
<title>\\BTC\\HashUtil</title>
<polygon fill="none" stroke="#000000" points="430,-114 359,-114 359,-78 430,-78 430,-114"/>
<text text-anchor="middle" x="394.5" y="-93.2" font-family="Courier,monospace" font-size="11.00" fill="#000000">HashUtil</text>
</g>
<!-- \\BTC\\Bech32 -->
<g id="node6" class="node">
<title>\\BTC\\Bech32</title>
<polygon fill="none" stroke="#000000" points="423,-60 366,-60 366,-24 423,-24 423,-60"/>
<text text-anchor="middle" x="394.5" y="-39.2" font-family="Courier,monospace" font-size="11.00" fill="#000000">Bech32</text>
</g>
<!-- \\BTC\\BitcoinECC -->
<g id="node8" class="node">
<title>\\BTC\\BitcoinECC</title>
<polygon fill="none" stroke="#000000" points="257,-169 173,-169 173,-133 257,-133 257,-169"/>
<text text-anchor="middle" x="215" y="-148.2" font-family="Courier,monospace" font-size="11.00" fill="#000000">BitcoinECC</text>
</g>
<!-- \\BTC\\BitcoinECC&#45;&gt;\\BTC\\Singleton -->
<g id="edge1" class="edge">
<title>\\BTC\\BitcoinECC&#45;&gt;\\BTC\\Singleton</title>
<path fill="none" stroke="#000000" d="M172.925,-165.8987C153.6051,-172.7398 130.5944,-180.8879 110.5916,-187.9708"/>
<polygon fill="none" stroke="#000000" points="109.3012,-184.7148 101.043,-191.352 111.6378,-191.3133 109.3012,-184.7148"/>
</g>
</g>
</svg>
