<?xml version="1.0" encoding="UTF-8" standalone="no"?>
<!DOCTYPE svg PUBLIC "-//W3C//DTD SVG 1.1//EN"
 "http://www.w3.org/Graphics/SVG/1.1/DTD/svg11.dtd">
<!-- Generated by graphviz version 2.40.1 (20161225.0304)
 -->
<!-- Title: G Pages: 1 -->
<svg width="503pt" height="258pt"
 viewBox="0.00 0.00 503.00 258.00" xmlns="http://www.w3.org/2000/svg" xmlns:xlink="http://www.w3.org/1999/xlink">
<g id="graph0" class="graph" transform="scale(1 1) rotate(0) translate(4 254)">
<title>G</title>
<polygon fill="#ffffff" stroke="transparent" points="-4,4 -4,-254 499,-254 499,4 -4,4"/>
<g id="clust1" class="cluster">
<title>cluster_Global</title>
<path fill="none" stroke="#c0c0c0" d="M20,-8C20,-8 475,-8 475,-8 481,-8 487,-14 487,-20 487,-20 487,-230 487,-230 487,-236 481,-242 475,-242 475,-242 20,-242 20,-242 14,-242 8,-236 8,-230 8,-230 8,-20 8,-20 8,-14 14,-8 20,-8"/>
<text text-anchor="middle" x="247.5" y="-229.2" font-family="Times,serif" font-size="11.00" fill="#c0c0c0">Global</text>
</g>
<!-- \\ExtendedPublicKey -->
<g id="node1" class="node">
<title>\\ExtendedPublicKey</title>
<polygon fill="none" stroke="#000000" points="479,-214 348,-214 348,-178 479,-178 479,-214"/>
<text text-anchor="middle" x="413.5" y="-193.2" font-family="Courier,monospace" font-size="11.00" fill="#000000">ExtendedPublicKey</text>
</g>
<!-- \\HashUtil -->
<g id="node2" class="node">
<title>\\HashUtil</title>
<polygon fill="none" stroke="#000000" points="449,-160 378,-160 378,-124 449,-124 449,-160"/>
<text text-anchor="middle" x="413.5" y="-139.2" font-family="Courier,monospace" font-size="11.00" fill="#000000">HashUtil</text>
</g>
<!-- \\Bech32 -->
<g id="node3" class="node">
<title>\\Bech32</title>
<polygon fill="none" stroke="#000000" points="442,-106 385,-106 385,-70 442,-70 442,-106"/>
<text text-anchor="middle" x="413.5" y="-85.2" font-family="Courier,monospace" font-size="11.00" fill="#000000">Bech32</text>
</g>
<!-- \\Singleton -->
<g id="node4" class="node">
<title>\\Singleton</title>
<polygon fill="none" stroke="#000000" points="93,-106 16,-106 16,-70 93,-70 93,-106"/>
<text text-anchor="middle" x="54.5" y="-85.2" font-family="Courier,monospace" font-size="11.00" fill="#000000">Singleton</text>
</g>
<!-- \\BitcoinECC -->
<g id="node5" class="node">
<title>\\BitcoinECC</title>
<polygon fill="none" stroke="#000000" points="262.5,-160 178.5,-160 178.5,-124 262.5,-124 262.5,-160"/>
<text text-anchor="middle" x="220.5" y="-139.2" font-family="Courier,monospace" font-size="11.00" fill="#000000">BitcoinECC</text>
</g>
<!-- \\BitcoinECC&#45;&gt;\\Singleton -->
<g id="edge1" class="edge">
<title>\\BitcoinECC&#45;&gt;\\Singleton</title>
<path fill="none" stroke="#000000" d="M178.1817,-128.2338C155.1334,-120.7362 126.5247,-111.4297 102.6291,-103.6565"/>
<polygon fill="none" stroke="#000000" points="103.6397,-100.3047 93.0475,-100.5396 101.4743,-106.9614 103.6397,-100.3047"/>
</g>
<!-- \\BTCTestVectors -->
<g id="node6" class="node">
<title>\\BTCTestVectors</title>
<polygon fill="none" stroke="#000000" points="276,-106 165,-106 165,-70 276,-70 276,-106"/>
<text text-anchor="middle" x="220.5" y="-85.2" font-family="Courier,monospace" font-size="11.00" fill="#000000">BTCTestVectors</text>
</g>
<!-- \\BTCTestVectors&#45;&gt;\\Singleton -->
<g id="edge2" class="edge">
<title>\\BTCTestVectors&#45;&gt;\\Singleton</title>
<path fill="none" stroke="#000000" d="M164.7626,-88C144.8026,-88 122.4764,-88 103.1619,-88"/>
<polygon fill="none" stroke="#000000" points="103.0712,-84.5001 93.0712,-88 103.0712,-91.5001 103.0712,-84.5001"/>
</g>
<!-- \\Logger -->
<g id="node7" class="node">
<title>\\Logger</title>
<polygon fill="none" stroke="#000000" points="249,-52 192,-52 192,-16 249,-16 249,-52"/>
<text text-anchor="middle" x="220.5" y="-31.2" font-family="Courier,monospace" font-size="11.00" fill="#000000">Logger</text>
</g>
<!-- \\Logger&#45;&gt;\\Singleton -->
<g id="edge3" class="edge">
<title>\\Logger&#45;&gt;\\Singleton</title>
<path fill="none" stroke="#000000" d="M191.9636,-43.2829C167.478,-51.2481 131.6704,-62.8964 102.7397,-72.3076"/>
<polygon fill="none" stroke="#000000" points="101.6451,-68.983 93.2183,-75.4049 103.8105,-75.6397 101.6451,-68.983"/>
</g>
<!-- \\TestLogger -->
<g id="node8" class="node">
<title>\\TestLogger</title>
<polygon fill="none" stroke="#000000" points="455.5,-52 371.5,-52 371.5,-16 455.5,-16 455.5,-52"/>
<text text-anchor="middle" x="413.5" y="-31.2" font-family="Courier,monospace" font-size="11.00" fill="#000000">TestLogger</text>
</g>
<!-- \\TestLogger&#45;&gt;\\Logger -->
<g id="edge4" class="edge">
<title>\\TestLogger&#45;&gt;\\Logger</title>
<path fill="none" stroke="#000000" d="M371.1453,-34C337.7032,-34 291.4338,-34 259.026,-34"/>
<polygon fill="none" stroke="#000000" points="259.0249,-30.5001 249.0249,-34 259.0248,-37.5001 259.0249,-30.5001"/>
</g>
</g>
</svg>
